<?xml version="1.0" encoding="utf-8"?>
<!-- Generator: Adobe Illustrator 16.0.0, SVG Export Plug-In . SVG Version: 6.00 Build 0)  -->
<!DOCTYPE svg PUBLIC "-//W3C//DTD SVG 1.1//EN" "http://www.w3.org/Graphics/SVG/1.1/DTD/svg11.dtd">
<svg version="1.1" id="Calque_1" xmlns="http://www.w3.org/2000/svg" xmlns:xlink="http://www.w3.org/1999/xlink" x="0px" y="0px"
	 width="50px" height="50px" viewBox="0 0 50 50" enable-background="new 0 0 50 50" xml:space="preserve">
<g>
	<path fill-rule="evenodd" clip-rule="evenodd" fill="#FFFFFF" d="M25.795,49.729c-7.892-0.153-14.449-2.777-19.881-8.117
		c-0.201-0.197-0.393-0.615-0.321-0.849c1.986-6.508,5.766-11.592,12.026-14.513c7.131-3.327,15.332-1.88,21.161,3.54
		c3.212,2.991,5.371,6.622,6.683,10.787c0.158,0.499,0.054,0.791-0.323,1.152c-4.499,4.331-9.83,6.929-16.018,7.745
		C27.923,49.634,26.708,49.662,25.795,49.729z"/>
	<path fill-rule="evenodd" clip-rule="evenodd" fill="#FFFFFF" d="M37.359,11.801c-0.003,6.518-5.255,11.753-11.775,11.742
		c-6.558-0.011-11.706-5.238-11.723-11.859C13.844,5.262,19.274-0.131,25.925,0.002C32.17,0.128,37.361,5.379,37.359,11.801z"/>
</g>
</svg>
