<?xml version="1.0" encoding="utf-8"?>
<!-- Generator: Adobe Illustrator 16.0.0, SVG Export Plug-In . SVG Version: 6.00 Build 0)  -->
<!DOCTYPE svg PUBLIC "-//W3C//DTD SVG 1.1//EN" "http://www.w3.org/Graphics/SVG/1.1/DTD/svg11.dtd">
<svg version="1.1" id="Calque_1" xmlns="http://www.w3.org/2000/svg" xmlns:xlink="http://www.w3.org/1999/xlink" x="0px" y="0px"
	 width="50px" height="50px" viewBox="0 0 50 50" enable-background="new 0 0 50 50" xml:space="preserve">
<g>
	<path fill-rule="evenodd" clip-rule="evenodd" fill="#FFFFFF" d="M15.977,32.014c1.042,0,1.987,0,2.933,0
		c7.676,0.001,15.353,0.004,23.029-0.001c1.138-0.001,1.854,0.474,2.436,1.346c0.801,1.199-0.467,3.194-2.106,3.147
		c-0.785-0.022-1.572,0.022-2.358,0.022c-8.518-0.003-17.035-0.044-25.551,0.011c-2.354,0.015-3.047-1.041-3.357-2.73
		c-0.662-3.593-1.351-7.181-2.015-10.773c-0.19-1.024-0.314-2.059-0.502-3.083c-0.363-1.969-0.752-3.934-1.125-5.902
		c-0.218-1.145-0.42-2.292-0.642-3.437C6.624,10.14,6.543,9.658,6.364,9.209C6.307,9.066,5.951,8.948,5.728,8.941
		C4.752,8.91,3.775,8.935,2.799,8.918C1.195,8.89,0.391,8.076,0.204,6.687C0.056,5.586,1.065,4.508,2.5,4.452
		c2.161-0.084,4.332-0.043,6.496,0.015c1.14,0.03,1.759,0.734,2.029,1.661c0.184,0.631,0.318,1.28,0.387,1.929
		c0.07,0.658,0.358,0.887,1.132,0.885c11.365-0.022,22.73,0.007,34.096-0.034c2.207-0.008,3.353,1.425,3.005,3.042
		c-0.396,1.841-0.529,3.727-0.818,5.588c-0.464,2.991-0.957,5.979-1.449,8.967c-0.094,0.57-0.141,1.17-0.381,1.692
		c-0.482,1.047-1.49,1.48-2.71,1.481c-9.329,0.004-18.659,0.001-27.989-0.021c-0.623-0.001-0.775,0.211-0.679,0.688
		C15.728,30.889,15.851,31.428,15.977,32.014z M43.472,18.065c0.205-1.291,0.365-2.537,0.614-3.769
		c0.112-0.558-0.128-0.703-0.659-0.704c-2.817-0.002-5.635-0.013-8.451,0.012c-0.206,0.002-0.583,0.253-0.587,0.397
		c-0.046,1.347-0.027,2.696-0.027,4.064C37.457,18.065,40.447,18.065,43.472,18.065z M34.36,25.062c2.602,0,5.061,0.012,7.52-0.022
		c0.206-0.003,0.551-0.305,0.585-0.502c0.196-1.163,0.342-2.334,0.444-3.506c0.016-0.177-0.281-0.54-0.438-0.542
		c-2.517-0.038-5.033-0.042-7.55-0.016c-0.188,0.002-0.53,0.289-0.536,0.45C34.342,22.272,34.36,23.623,34.36,25.062z
		 M12.492,13.671c0.245,1.372,0.483,2.599,0.675,3.831c0.076,0.489,0.332,0.629,0.86,0.625c2.218-0.021,4.437-0.026,6.655,0.001
		c0.597,0.008,0.751-0.211,0.74-0.684c-0.023-0.943-0.009-1.887-0.027-2.83c-0.019-1.018-0.027-1.022-1.193-1.025
		c-2.029-0.004-4.058-0.008-6.087,0.001C13.583,13.593,13.052,13.642,12.492,13.671z M24.09,25.064c2.462,0,4.764-0.007,7.064,0.006
		c0.504,0.002,0.583-0.257,0.582-0.604c-0.005-1.139,0.012-2.279-0.046-3.416c-0.01-0.199-0.334-0.547-0.521-0.551
		c-2.14-0.045-4.281-0.048-6.421-0.024c-0.222,0.003-0.625,0.245-0.63,0.384C24.071,22.232,24.09,23.607,24.09,25.064z
		 M24.083,18.109c2.466,0,4.841,0.009,7.214-0.021c0.151-0.002,0.42-0.307,0.426-0.477c0.042-1.136,0.019-2.274,0.037-3.412
		c0.006-0.401-0.203-0.59-0.624-0.592c-2.166-0.008-4.331-0.017-6.496,0.007c-0.188,0.002-0.529,0.239-0.533,0.373
		C24.067,15.334,24.083,16.683,24.083,18.109z M14.637,25.065c2.017,0,4.015-0.022,6.012,0.013c0.646,0.012,0.785-0.245,0.78-0.732
		c-0.01-1.017-0.019-2.035,0.013-3.052c0.02-0.623-0.248-0.856-0.957-0.847c-1.896,0.024-3.792,0.015-5.688-0.021
		c-0.744-0.014-1.06,0.201-0.914,0.889C14.14,22.516,14.369,23.721,14.637,25.065z"/>
	<path fill-rule="evenodd" clip-rule="evenodd" fill="#FFFFFF" d="M44.621,42.368c-0.021,1.853-1.814,3.398-3.924,3.382
		c-2.154-0.018-3.9-1.576-3.825-3.516c0.066-1.715,1.563-3.348,3.936-3.325C43.193,38.932,44.608,40.752,44.621,42.368z"/>
	<path fill-rule="evenodd" clip-rule="evenodd" fill="#FFFFFF" d="M13.78,42.323c-0.039-1.915,1.537-3.358,3.718-3.405
		c2.192-0.049,3.894,1.428,3.917,3.396c0.021,1.896-1.651,3.424-3.777,3.437C15.568,45.762,13.724,44.398,13.78,42.323z"/>
</g>
</svg>
